Coordinates
version=1
nRows=8
nColumns=40
inDegrees=yes

Units are S.I. units (second, meters, Newtons, ...)
Angles are in degrees.

endheader
time	pelvis_tilt	pelvis_list	pelvis_rotation	pelvis_tx	pelvis_ty	pelvis_tz	hip_flexion_r	hip_adduction_r	hip_rotation_r	knee_angle_r	knee_angle_r_beta	ankle_angle_r	subtalar_angle_r	mtp_angle_r	hip_flexion_l	hip_adduction_l	hip_rotation_l	knee_angle_l	knee_angle_l_beta	ankle_angle_l	subtalar_angle_l	mtp_angle_l	lumbar_extension	lumbar_bending	lumbar_rotation	arm_flex_r	arm_add_r	arm_rot_r	elbow_flex_r	pro_sup_r	wrist_flex_r	wrist_dev_r	arm_flex_l	arm_add_l	arm_rot_l	elbow_flex_l	pro_sup_l	wrist_flex_l	wrist_dev_l
     29.93000000	     -3.85101908	     -3.46200029	     -0.50042607	      0.67598303	      0.92872483	      0.43190304	     27.70065405	     -7.18322345	     -8.86631072	     68.00488643	     68.00488643	      3.13149725	    -18.95278781	      9.12436823	     18.01774606	     -3.57093099	     -6.21931649	     23.39155142	     23.39155142	     11.77369692	    -12.20295936	     -1.27963495	     -9.98186079	      3.23253818	      1.87353374	     11.05409884	    -13.71067917	      2.16094716	     54.92195043	     45.32830811	      0.00000000	      0.00000000	      8.03222744	    -14.50109739	      2.86991451	     45.22344430	     45.95005421	      0.00000000	      0.00000000
     29.94314286	     -3.82519120	     -3.61250486	     -0.78153809	      0.67560911	      0.92953769	      0.43137001	     28.75294543	     -6.75960933	     -8.57335838	     67.03513369	     67.03513369	      3.16194266	    -18.79614533	      8.98167293	     17.26688578	     -3.65361048	     -6.20570205	     22.99278214	     22.99278214	     11.99146692	    -12.50515569	     -1.21182941	    -10.13250468	      3.51166061	      2.33934568	      9.16126938	    -14.08625531	      2.14269884	     52.55523175	     45.40629505	      0.00000000	      0.00000000	      9.07109744	    -14.53765444	      2.53868914	     46.54736269	     46.01240380	      0.00000000	      0.00000000
     29.95628571	     -3.79953171	     -3.79794534	     -1.03664633	      0.67530127	      0.93033851	      0.43085760	     29.64908647	     -6.33644764	     -8.40942927	     65.79284649	     65.79284649	      2.82885277	    -18.66068040	      7.92283470	     16.50311779	     -3.81792400	     -6.36076494	     22.57530834	     22.57530834	     12.20330574	    -12.46926881	     -1.42607209	    -10.26538266	      3.80611268	      1.89790056	      8.67521863	    -13.44525191	      1.10016096	     47.63070912	     45.63015369	      0.00000000	      0.00000000	      8.96673564	    -14.97523666	      1.71900392	     49.36259686	     46.14309521	      0.00000000	      0.00000000
     29.96942857	     -3.75707413	     -3.98755822	     -1.35180381	      0.67500612	      0.93109804	      0.43047803	     30.42996555	     -5.82201183	     -8.16429217	     64.32359046	     64.32359046	      2.77909573	    -18.50810846	      7.74216780	     15.70651388	     -3.99190926	     -6.56069188	     22.13698474	     22.13698474	     12.47620236	    -12.43008149	     -1.42113739	    -10.47331087	      4.11627281	      2.42057691	      6.88163269	    -13.85648375	      1.04268120	     45.51389379	     45.70022219	      0.00000000	      0.00000000	      9.91882570	    -14.98847821	      1.19064450	     50.91546119	     46.22434924	      0.00000000	      0.00000000
     29.98257143	     -3.76148079	     -4.13049997	     -1.62343034	      0.67472753	      0.93170345	      0.43007397	     31.07889900	     -5.45079322	     -8.09482555	     62.47429863	     62.47429863	      2.33847583	    -18.35206076	      6.38576883	     15.00013454	     -4.12368191	     -6.79985025	     21.75549413	     21.75549413	     12.73857416	    -12.27334858	     -1.57939179	    -10.59215253	      4.37930794	      1.74181631	      7.02493741	    -13.12015091	     -0.32874651	     40.02472869	     45.96713805	      0.00000000	      0.00000000	      9.39560929	    -15.51707951	     -0.24967798	     54.28693871	     46.41563621	      0.00000000	      0.00000000
     29.99571429	     -3.76154940	     -4.23622279	     -1.92582829	      0.67446824	      0.93219831	      0.42975910	     31.65005811	     -5.05818817	     -7.96534767	     60.38476965	     60.38476965	      2.28403628	    -18.11236690	      6.22382614	     14.27485136	     -4.20047695	     -7.01095843	     21.34290842	     21.34290842	     13.00553608	    -12.23133265	     -1.56607279	    -10.75526602	      4.62386423	      2.16986578	      5.44082307	    -13.45991830	     -0.54762739	     38.01653594	     46.04202318	      0.00000000	      0.00000000	     10.21330011	    -15.47100759	     -0.88526621	     55.87370005	     46.50474955	      0.00000000	      0.00000000
     30.00885714	     -3.80176736	     -4.34658938	     -2.21412459	      0.67429568	      0.93257019	      0.42954913	     32.00889988	     -4.70968028	     -8.02382118	     57.76682551	     57.76682551	      1.84146482	    -17.93359503	      4.65741427	     13.60084139	     -4.30241321	     -7.28572810	     20.94573897	     20.94573897	     13.26057244	    -12.07335365	     -1.65086413	    -10.85819211	      4.84423580	      1.57497894	      5.50009888	    -12.99992326	     -2.16467158	     33.40794644	     46.29985693	      0.00000000	      0.00000000	      9.70800676	    -15.89624552	     -2.42439221	     59.12998276	     46.69800840	      0.00000000	      0.00000000
     30.02200000	     -3.86203382	     -4.40297361	     -2.51658355	      0.67414968	      0.93281412	      0.42942841	     32.29664068	     -4.38636772	     -8.08288022	     54.87520341	     54.87520341	      1.87541758	    -17.53739443	      4.47837616	     12.93812352	     -4.33035833	     -7.51875918	     20.52311303	     20.52311303	     13.51456456	    -12.00301275	     -1.65376550	    -10.96645723	      5.04001962	      1.99811863	      3.96455129	    -13.35983768	     -2.49556989	     31.80930265	     46.36910766	      0.00000000	      0.00000000	     10.45621322	    -15.86958777	     -2.98537529	     60.72137354	     46.77725210	      0.00000000	      0.00000000
